<svg width="650" height="614" viewBox="0 0 650 614" fill="none" xmlns="http://www.w3.org/2000/svg">
<g filter="url(#filter0_f)">
<path d="M391.181 209.74C416.705 219.314 442.548 240.695 446.376 265.587C450.524 290.159 433.295 318.881 415.109 343.134C396.924 367.707 377.78 388.45 353.214 399.938C328.647 411.746 298.337 414.299 269.622 406.64C240.589 399.3 212.831 381.748 205.174 357.495C197.836 333.56 210.598 303.244 220.808 277.075C231.017 250.907 238.674 228.887 253.67 217.718C268.984 206.23 291.956 205.91 316.204 204.315C340.452 203.038 365.657 200.485 391.181 209.74Z" fill="url(#paint0_linear)"/>
</g>
<defs>
<filter id="filter0_f" x="0" y="0" width="650" height="614" filterUnits="userSpaceOnUse" color-interpolation-filters="sRGB">
<feFlood flood-opacity="0" result="BackgroundImageFix"/>
<feBlend mode="normal" in="SourceGraphic" in2="BackgroundImageFix" result="shape"/>
<feGaussianBlur stdDeviation="101.5" result="effect1_foregroundBlur"/>
</filter>
<linearGradient id="paint0_linear" x1="203" y1="411" x2="408.378" y2="170.076" gradientUnits="userSpaceOnUse">
<stop stop-color="#F099F2"/>
<stop offset="1" stop-color="#6A017B"/>
</linearGradient>
</defs>
</svg>
